<?xml version="1.0" encoding="utf-8"?>
<!-- Generator: Adobe Illustrator 22.1.0, SVG Export Plug-In . SVG Version: 6.00 Build 0)  -->
<svg version="1.1" id="Layer_1" xmlns="http://www.w3.org/2000/svg" xmlns:xlink="http://www.w3.org/1999/xlink" x="0px" y="0px"
	 viewBox="0 0 724.4 69.5" style="enable-background:new 0 0 724.4 69.5;" xml:space="preserve">
<style type="text/css">
	.st0{opacity:0.1;}
</style>
<g class="st0">
	<path d="M4.1,20.2l-1,1l-3-3.1l1-1L4.1,20.2z"/>
	<path d="M8.8,24.8l-1,1.1l-3.2-2.9l1-1.1L8.8,24.8z"/>
	<path d="M13.9,29L13,30.1l-3.3-2.8l0.9-1.1L13.9,29z"/>
	<path d="M19.1,33l-0.9,1.2l-3.5-2.6l0.9-1.2L19.1,33z"/>
	<path d="M24.5,36.7l-0.8,1.2l-3.6-2.4l0.8-1.2L24.5,36.7z"/>
	<path d="M30.1,40.2l-0.7,1.2l-3.7-2.2l0.8-1.2L30.1,40.2z"/>
	<path d="M35.9,43.4l-0.7,1.3l-3.8-2.1l0.7-1.3L35.9,43.4z"/>
	<path d="M41.8,46.3l-0.6,1.3l-3.9-1.9l0.6-1.3L41.8,46.3z"/>
	<path d="M47.7,49l-0.6,1.3l-4-1.8l0.6-1.3L47.7,49z"/>
	<path d="M53.8,51.5l-0.5,1.3l-4-1.6l0.5-1.3L53.8,51.5z"/>
	<path d="M60,53.8l-0.5,1.4l-4.1-1.5l0.5-1.4L60,53.8z"/>
	<path d="M66.2,55.8l-0.4,1.4l-4.1-1.3l0.4-1.4L66.2,55.8z"/>
	<path d="M72.5,57.6L72.1,59l-4.2-1.2l0.4-1.4L72.5,57.6z"/>
	<path d="M78.9,59.3l-0.4,1.4l-4.2-1.1l0.4-1.4L78.9,59.3z"/>
	<path d="M85.2,60.7l-0.3,1.4l-4.2-0.9l0.3-1.4L85.2,60.7z"/>
	<path d="M91.6,62l-0.3,1.4l-4.3-0.8l0.3-1.4L91.6,62z"/>
	<path d="M98.1,63.1l-0.2,1.4l-4.3-0.7l0.2-1.4L98.1,63.1z"/>
	<path d="M104.5,64.1l-0.2,1.4l-4.3-0.6l0.2-1.4L104.5,64.1z"/>
	<path d="M110.8,64.9l-0.2,1.4l-4.3-0.5l0.2-1.4L110.8,64.9z"/>
	<path d="M117.1,65.5L117,67l-4.3-0.4l0.1-1.4L117.1,65.5z"/>
	<path d="M123.4,66l-0.1,1.4l-4.3-0.3l0.1-1.4L123.4,66z"/>
	<path d="M129.7,66.4l-0.1,1.4l-4.3-0.2l0.1-1.4L129.7,66.4z"/>
	<path d="M136.1,66.7l-0.1,1.4l-4.3-0.2l0.1-1.4L136.1,66.7z"/>
	<path d="M142.4,66.8l0,1.4l-4.3-0.1l0-1.4L142.4,66.8z"/>
	<path d="M148.8,66.8v1.4h-4.3v-1.4H148.8z"/>
	<path d="M155.1,66.7l0,1.4l-4.3,0.1l0-1.4L155.1,66.7z"/>
	<path d="M161.5,66.5l0.1,1.4l-4.3,0.2l-0.1-1.4L161.5,66.5z"/>
	<path d="M167.8,66.2l0.1,1.4l-4.3,0.2l-0.1-1.4L167.8,66.2z"/>
	<path d="M174.1,65.7l0.1,1.4l-4.3,0.3l-0.1-1.4L174.1,65.7z"/>
	<path d="M180.4,65.1l0.1,1.4l-4.3,0.4l-0.1-1.4L180.4,65.1z"/>
	<path d="M187,64.4l0.2,1.4l-4.3,0.5l-0.2-1.4L187,64.4z"/>
	<path d="M192.3,58.5l1,1l-3.1,3l-1-1L192.3,58.5z"/>
	<path d="M197.2,54.1l1,1.1l-3.2,2.9l-1-1.1L197.2,54.1z"/>
	<path d="M202.1,49.8l0.9,1.1l-3.3,2.8l-0.9-1.1L202.1,49.8z"/>
	<path d="M207.2,45.7l0.9,1.1l-3.4,2.7l-0.9-1.1L207.2,45.7z"/>
	<path d="M212.4,41.6l0.9,1.1l-3.4,2.6l-0.9-1.1L212.4,41.6z"/>
	<path d="M217.7,37.8l0.9,1.2l-3.5,2.6l-0.9-1.2L217.7,37.8z"/>
	<path d="M223.1,34l0.8,1.2l-3.6,2.5l-0.8-1.2L223.1,34z"/>
	<path d="M228.6,30.4l0.8,1.2l-3.6,2.4l-0.8-1.2L228.6,30.4z"/>
	<path d="M234.2,27l0.8,1.2l-3.7,2.3l-0.8-1.2L234.2,27z"/>
	<path d="M239.8,23.7l0.7,1.3l-3.8,2.2l-0.7-1.3L239.8,23.7z"/>
	<path d="M245.6,20.6l0.7,1.3l-3.8,2l-0.7-1.3L245.6,20.6z"/>
	<path d="M251.5,17.6l0.6,1.3l-3.9,1.9l-0.6-1.3L251.5,17.6z"/>
	<path d="M257.5,14.9l0.6,1.3l-3.9,1.8l-0.6-1.3L257.5,14.9z"/>
	<path d="M263.5,12.3l0.6,1.3l-4,1.7l-0.6-1.3L263.5,12.3z"/>
	<path d="M269.6,10l0.5,1.4l-4.1,1.5l-0.5-1.4L269.6,10z"/>
	<path d="M275.9,7.8l0.5,1.4l-4.1,1.4l-0.5-1.4L275.9,7.8z"/>
	<path d="M282.2,6l0.4,1.4l-4.2,1.2L278,7.2L282.2,6z"/>
	<path d="M288.6,4.3l0.4,1.4l-4.2,1.1l-0.4-1.4L288.6,4.3z"/>
	<path d="M295,2.9l0.3,1.4L291,5.2l-0.3-1.4L295,2.9z"/>
	<path d="M301.5,1.8l0.2,1.4l-4.3,0.7l-0.2-1.4L301.5,1.8z"/>
	<path d="M308.1,0.9l0.2,1.4l-4.3,0.5l-0.2-1.4L308.1,0.9z"/>
	<path d="M314.6,0.3l0.1,1.4l-4.3,0.3l-0.1-1.4L314.6,0.3z"/>
	<path d="M321.2,0l0.1,1.4L317,1.6l-0.1-1.4L321.2,0z"/>
	<path d="M327.8,0l0,1.4l-4.3,0l0-1.4L327.8,0z"/>
	<path d="M334.4,0.4l-0.1,1.4L330,1.6l0.1-1.4L334.4,0.4z"/>
	<path d="M341,1l-0.1,1.4L336.5,2l0.1-1.4L341,1z"/>
	<path d="M347.6,1.9l-0.2,1.4l-4.3-0.6l0.2-1.4L347.6,1.9z"/>
	<path d="M354,3.1l-0.3,1.4l-4.3-0.8l0.3-1.4L354,3.1z"/>
	<path d="M360.5,4.6L360.1,6l-4.2-1l0.3-1.4L360.5,4.6z"/>
	<path d="M366.8,6.4l-0.4,1.4l-4.2-1.2l0.4-1.4L366.8,6.4z"/>
	<path d="M373.1,8.5l-0.5,1.4l-4.1-1.4l0.5-1.4L373.1,8.5z"/>
	<path d="M379.6,12.7l-1,1l-3-3.1l1-1L379.6,12.7z"/>
	<path d="M384.4,17.1l-1,1.1l-3.2-2.9l1-1.1L384.4,17.1z"/>
	<path d="M389.5,21.4l-0.9,1.1l-3.3-2.8l0.9-1.1L389.5,21.4z"/>
	<path d="M394.6,25.5l-0.9,1.1l-3.4-2.7l0.9-1.1L394.6,25.5z"/>
	<path d="M399.9,29.3l-0.9,1.2l-3.5-2.6l0.9-1.2L399.9,29.3z"/>
	<path d="M405.3,33.1l-0.8,1.2l-3.6-2.5l0.8-1.2L405.3,33.1z"/>
	<path d="M410.7,36.6l-0.8,1.2l-3.7-2.3l0.8-1.2L410.7,36.6z"/>
	<path d="M416.4,40l-0.7,1.2l-3.7-2.2l0.7-1.2L416.4,40z"/>
	<path d="M422.1,43.3l-0.7,1.3l-3.8-2.1l0.7-1.3L422.1,43.3z"/>
	<path d="M427.8,46.3l-0.7,1.3l-3.8-2l0.7-1.3L427.8,46.3z"/>
	<path d="M433.7,49.2l-0.6,1.3l-3.9-1.9l0.6-1.3L433.7,49.2z"/>
	<path d="M439.7,51.9l-0.6,1.3l-4-1.8l0.6-1.3L439.7,51.9z"/>
	<path d="M445.8,54.4l-0.5,1.3l-4-1.6l0.5-1.3L445.8,54.4z"/>
	<path d="M451.9,56.7l-0.5,1.4l-4.1-1.5l0.5-1.4L451.9,56.7z"/>
	<path d="M458.1,58.8l-0.5,1.4l-4.1-1.4l0.5-1.4L458.1,58.8z"/>
	<path d="M464.4,60.7l-0.4,1.4l-4.2-1.2l0.4-1.4L464.4,60.7z"/>
	<path d="M470.7,62.4l-0.4,1.4l-4.2-1.1l0.4-1.4L470.7,62.4z"/>
	<path d="M477.1,63.8l-0.3,1.4l-4.2-1l0.3-1.4L477.1,63.8z"/>
	<path d="M483.5,65.1l-0.3,1.4l-4.3-0.8l0.3-1.4L483.5,65.1z"/>
	<path d="M490,66.1l-0.2,1.4l-4.3-0.7l0.2-1.4L490,66.1z"/>
	<path d="M496.5,67l-0.2,1.4l-4.3-0.5l0.2-1.4L496.5,67z"/>
	<path d="M503,67.5l-0.1,1.4l-4.3-0.4l0.1-1.4L503,67.5z"/>
	<path d="M509.6,67.9l-0.1,1.4l-4.3-0.2l0.1-1.4L509.6,67.9z"/>
	<path d="M516.1,68.1l0,1.4l-4.3-0.1l0-1.4L516.1,68.1z"/>
	<path d="M522.7,68l0,1.4l-4.3,0.1l0-1.4L522.7,68z"/>
	<path d="M529.2,67.7l0.1,1.4l-4.3,0.2l-0.1-1.4L529.2,67.7z"/>
	<path d="M535.8,67.2l0.1,1.4l-4.3,0.4l-0.1-1.4L535.8,67.2z"/>
	<path d="M542.3,66.4l0.2,1.4l-4.3,0.5l-0.2-1.4L542.3,66.4z"/>
	<path d="M548.8,65.5l0.2,1.4l-4.3,0.7l-0.2-1.4L548.8,65.5z"/>
	<path d="M555.3,64.3l0.3,1.4l-4.3,0.8l-0.3-1.4L555.3,64.3z"/>
	<path d="M560.9,59.3l1,1l-3,3.1l-1-1L560.9,59.3z"/>
	<path d="M565.6,54.7l1,1l-3.1,3l-1-1L565.6,54.7z"/>
	<path d="M570.5,50.3l1,1.1l-3.2,2.9l-1-1.1L570.5,50.3z"/>
	<path d="M575.6,46.1l0.9,1.1l-3.3,2.8l-0.9-1.1L575.6,46.1z"/>
	<path d="M580.8,42.1l0.9,1.1l-3.4,2.6l-0.9-1.1L580.8,42.1z"/>
	<path d="M586.1,38.2l0.8,1.2l-3.5,2.5l-0.8-1.2L586.1,38.2z"/>
	<path d="M591.6,34.6l0.8,1.2l-3.6,2.4l-0.8-1.2L591.6,34.6z"/>
	<path d="M597.2,31.1l0.7,1.2l-3.7,2.2l-0.7-1.2L597.2,31.1z"/>
	<path d="M603,27.9l0.7,1.3l-3.8,2.1l-0.7-1.3L603,27.9z"/>
	<path d="M608.8,24.9l0.6,1.3l-3.9,1.9l-0.6-1.3L608.8,24.9z"/>
	<path d="M614.8,22.1l0.6,1.3l-3.9,1.8l-0.6-1.3L614.8,22.1z"/>
	<path d="M620.9,19.6l0.5,1.3l-4,1.6l-0.5-1.3L620.9,19.6z"/>
	<path d="M627,17.3l0.5,1.4l-4.1,1.5l-0.5-1.4L627,17.3z"/>
	<path d="M633.3,15.2l0.4,1.4l-4.1,1.3l-0.4-1.4L633.3,15.2z"/>
	<path d="M639.6,13.4l0.4,1.4l-4.2,1.2l-0.4-1.4L639.6,13.4z"/>
	<path d="M646,11.8l0.3,1.4l-4.2,1l-0.3-1.4L646,11.8z"/>
	<path d="M652.4,10.4l0.3,1.4l-4.2,0.9l-0.3-1.4L652.4,10.4z"/>
	<path d="M658.9,9.3l0.2,1.4l-4.3,0.7l-0.2-1.4L658.9,9.3z"/>
	<path d="M665.4,8.3l0.2,1.4l-4.3,0.6l-0.2-1.4L665.4,8.3z"/>
	<path d="M672,7.7l0.1,1.4l-4.3,0.4l-0.1-1.4L672,7.7z"/>
	<path d="M678.5,7.2l0.1,1.4l-4.3,0.3l-0.1-1.4L678.5,7.2z"/>
	<path d="M685.1,7l0,1.4l-4.3,0.1l0-1.4L685.1,7z"/>
	<path d="M691.7,7l0,1.4l-4.3,0l0-1.4L691.7,7z"/>
	<path d="M698.3,7.2l-0.1,1.4l-4.3-0.2l0.1-1.4L698.3,7.2z"/>
	<path d="M704.8,7.6L704.7,9l-4.3-0.3l0.1-1.4L704.8,7.6z"/>
	<path d="M711.4,8.2l-0.1,1.4l-4.3-0.4l0.1-1.4L711.4,8.2z"/>
	<path d="M717.9,9l-0.2,1.4l-4.3-0.6l0.2-1.4L717.9,9z"/>
	<path d="M724.4,10l-0.2,1.4l-4.3-0.7l0.2-1.4L724.4,10z"/>
</g>
</svg>
